<?xml version="1.0" standalone="no"?>
<!DOCTYPE svg PUBLIC "-//W3C//DTD SVG 1.1//EN" "http://www.w3.org/Graphics/SVG/1.1/DTD/svg11.dtd" >
<svg xmlns="http://www.w3.org/2000/svg">
<metadata></metadata>
<defs>
<font id="woodshopregular" horiz-adv-x="1341" >
<font-face units-per-em="2048" ascent="1536" descent="-512" />
<missing-glyph horiz-adv-x="587" />
<glyph horiz-adv-x="2048" />
<glyph horiz-adv-x="2048" />
<glyph unicode="&#xd;" horiz-adv-x="2048" />
<glyph unicode=" "  horiz-adv-x="587" />
<glyph unicode="&#x09;" horiz-adv-x="587" />
<glyph unicode="&#xa0;" horiz-adv-x="587" />
<glyph unicode="A" horiz-adv-x="1318" d="M35 0v201h94q3 23 28 169t31 177h-69v198h110q68 299 88 445h-90v201h103h10q24 0 55 -7q38 -9 70 -38q4 -4 4 -5q1 1 3 2.5t3 2.5q32 29 70 38q31 7 55 7h10h95h10q24 0 55 -7q38 -9 70 -38q4 -4 4 -5q1 1 3 2.5t3 2.5q32 29 70 38q31 7 55 7h10h102v-201h-88 q12 -97 86 -445h109v-198h-70q6 -23 32.5 -171t29.5 -175h92v-201h-111q-75 0 -127 45l-4 4l-4 -4q-50 -45 -125 -45h-112v201h88q-3 26 -28.5 163t-35.5 183h-323q-10 -46 -35.5 -183t-28.5 -163h88v-201h-110q-77 0 -127 45l-4 4q-1 -1 -3.5 -2t-3.5 -2q-50 -45 -125 -45 h-112zM537 745h241q-5 30 -42.5 228t-39.5 217h-78q-3 -24 -36 -203.5t-45 -241.5z" />
<glyph unicode="B" d="M82 551v199h98v440h-92v201h102q9 1 18 1q67 0 118 -46q4 -4 4 -5q1 1 3 2.5t3 2.5q32 29 70 38q31 7 55 7h10h569q8 1 16 1q63 0 111 -44q56 -45 56 -134v-340q0 -77 -56 -133q-21 -17 -37 -22q30 -13 46 -29q55 -51 55 -133v-381q0 -82 -55 -133q-48 -43 -119 -43h-600 q-77 0 -127 45q-2 0 -2 2q0 -2 -2 -2q-50 -45 -125 -45h-113v201h92v350h-98zM481 201h449v350h-449v-350zM481 750h443v440h-443v-440z" />
<glyph unicode="C" horiz-adv-x="1361" d="M63 547v198h103v469q0 93 55 134q48 44 110 44q8 0 15 -1h686q9 1 18 1q64 0 111 -44q53 -42 53 -134v-165h93v-203h-101h-10q-75 0 -127 47l-8 8l-8 -8q-52 -47 -127 -47h-11h-100v203h100v141h-450v-989h450v137h-100v201h100q85 0 138 -47q7 -7 8 -9q2 2 4.5 5t3.5 4 q51 47 137 47h101v-201l-93 2v-164q0 -84 -53 -133q-50 -43 -119 -43h-10h-692q-71 0 -119 43q-55 47 -55 133v371h-103z" />
<glyph unicode="D" horiz-adv-x="1400" d="M88 0v201h92v989h-92v201h969q8 1 16 1q63 0 113 -44q53 -42 53 -134v-464h86v-199h-86v-375q0 -84 -53 -133q-50 -43 -121 -43h-604q-75 0 -127 45l-4 4l-4 -4q-50 -45 -125 -45h-113zM481 201h457v989h-457v-989z" />
<glyph unicode="E" horiz-adv-x="1259" d="M80 549v201h96v440h-92v201h102q9 1 18 1q68 0 120 -46q0 -1 4 -5q0 1 4 5q32 29 70 38q31 7 55 7h10h387q9 1 18 1q67 0 119 -46q0 -1 4 -5q0 1 4 5q50 46 118 46q9 0 18 -1h8v-299h-299v98h-367v-440h285v90h199v-99q0 -51 -17 -92q17 -39 17 -90v-100h-199v92h-285 v-350h367v98h299v-299h-8h-11q-75 0 -125 45l-4 4l-4 -4q-52 -45 -129 -45h-403q-77 0 -127 45l-4 4l-4 -4q-52 -45 -127 -45h-113v201h92v348h-96z" />
<glyph unicode="F" horiz-adv-x="1214" d="M84 549v201h98v440h-90v201h101q9 1 18 1q67 0 119 -46q0 -1 4 -5q1 1 2 2.5t2 2.5q32 29 70 38q31 7 55 7h10h387q9 1 18 1q67 0 119 -46q0 -1 4 -5q0 2 3 5q50 46 118 46q9 0 19 -1h8v-299h-299v98h-367v-440h283v90h201v-99q0 -51 -17 -92q17 -39 17 -90v-100h-201v92 h-283v-350h92v-201h-112q-75 0 -125 45l-4 4l-4 -4q-52 -45 -129 -45h-109v201h90v348h-98z" />
<glyph unicode="G" d="M61 547v198h101v469q0 87 55 134q48 44 110 44q7 0 15 -1h649q8 1 16 1q41 0 89 -22q47 22 87 22q8 0 15 -1h10v-299h-301v98h-446v-989h450v344h-92v-101h-198v103q0 53 16 90q-16 37 -16 90v102h198v-84h486v-198h-93v-373q0 -82 -55 -133q-48 -43 -119 -43h-10h-686 h-6q-71 0 -119 43q-55 47 -55 133v373h-101z" />
<glyph unicode="H" horiz-adv-x="1411" d="M82 356v201h98v635h-92v201h102q9 1 18 1q67 0 118 -46q4 -4 4 -5q1 1 3 2.5t3 2.5q32 29 70 38q31 7 55 7h10h102v-201h-92v-635h449v635h-92v201h102h10q24 0 55 -7q38 -9 70 -38q1 -1 3 -2.5t3 -2.5q0 1 4 5q50 46 118 46q9 0 18 -1h102v-201h-92v-635h86v-201h-86v-6 v-149h92v-201h-111q-78 0 -127 47q-4 0 -4 4q-4 -4 -6 -4q-49 -47 -125 -47h-112v201h92v155h-449v-155h92v-201h-112q-76 0 -125 47q-2 0 -6 4q0 -4 -4 -4q-49 -47 -125 -47h-113v201h92v155h-98z" />
<glyph unicode="I" horiz-adv-x="733" d="M125 0v201h92v989h-92v203h100q86 0 137 -47q3 0 3 -5q5 5 6 5q51 47 135 47h102v-203h-92v-989h92v-201h-110q-77 0 -127 45q-1 1 -3 2t-3 2q0 -1 -3 -4q-52 -45 -126 -45h-111z" />
<glyph unicode="J" horiz-adv-x="1202" d="M55 350v201h99q88 0 139 -47q2 0 2 -4l4 4q51 47 137 47h101v-201h-91v-149h259v989h-93v203h103q84 0 135 -47q1 0 6 -5q0 5 4 5q49 47 135 47h101v-203h-92v-1014q0 -83 -54 -133q-50 -43 -119 -43h-512q-68 0 -118 43q-56 45 -56 115v192h-90z" />
<glyph unicode="K" horiz-adv-x="1382" d="M90 354v199h94v639h-90v201h101q8 1 16 1q69 0 121 -46q1 -1 2 -2.5t2 -2.5q4 4 4 5q50 46 118 46q9 0 19 -1h101v-201h-93v-641h250q3 24 100 326.5t99 314.5h-88v201h102h10q24 0 55 -7q38 -9 70 -38q1 -1 3.5 -2.5t3.5 -2.5q0 1 4 5q32 29 70 38q31 7 55 7h10h102 v-201h-94q-4 -25 -102.5 -337t-100.5 -320h2l2 -3q24 -7 43 -26l4 -4q1 1 3 2q1 0 1.5 0.5t0.5 1.5q52 46 119 46q9 0 18 -1h10v-350h92v-201h-112q-75 0 -127 47q-3 2 -5 4q0 -4 -4 -4q-49 -47 -127 -47h-110v201h92v149h-451v-149h93v-201h-111q-75 0 -127 47l-4 4l-4 -4 q-52 -47 -129 -47h-109v201h90v153h-94z" />
<glyph unicode="L" horiz-adv-x="1071" d="M94 0v201h92v989h-92v203h103q84 0 135 -47q4 0 4 -5q5 5 6 5q49 47 135 47h101v-203h-93v-989h349v92h198v-100q0 -54 -16 -91q16 -39 16 -90v-12h-565q-75 0 -125 45q-1 1 -3 2t-3 2l-4 -4q-50 -45 -127 -45h-111z" />
<glyph unicode="M" horiz-adv-x="1599" d="M92 0v201h90v989h-90v203h101q84 0 137 -47q2 -3 4 -5q1 1 2 3q0 1 0.5 1.5t1.5 0.5q51 47 135 47h102v-203h-92l310 -438l307 438h-82v203h100q84 0 137 -47l5 -5q0 5 2 5q53 47 139 47h98v-203h-90v-989h90v-201h-108q-77 0 -129 45q-2 2 -2 4q-1 -1 -3 -2t-2 -2 q-52 -45 -129 -45h-108v201h90v628l-315 -456l-310 446v-618h92v-201h-112q-75 0 -125 45l-4 4l-4 -4q-52 -45 -129 -45h-109z" />
<glyph unicode="N" horiz-adv-x="1503" d="M90 0v201h90v989h-90v203h100q85 0 138 -47q1 0 2 -2q1 -1 1 -1.5t1 -1.5q1 1 2 3q0 1 0.5 1.5t1.5 0.5q53 47 137 47h100v-203h-73q2 -2 80 -98.5t162.5 -201t165 -206t98.5 -125.5v631h-91v203h101q84 0 137 -47q1 0 2 -2q1 -1 1 -1.5t1 -1.5q1 1 2 3q0 1 0.5 1.5 t1.5 0.5q53 47 137 47h101v-203h-92v-989h92v-201h-111q-75 0 -127 45l-4 4l-4 -4q-52 -45 -129 -45h-109v201h86q-83 109 -264 333.5t-254 321.5v-655h90v-201h-110q-75 0 -127 45l-4 4l-4 -4q-52 -45 -127 -45h-111z" />
<glyph unicode="O" horiz-adv-x="1402" d="M80 551v201h98v465q0 82 55 133q49 43 129 43h678q76 0 125 -43q56 -48 56 -133v-465h92v-201h-92v-375q0 -85 -56 -133q-48 -43 -116 -43h-695q-71 0 -121 43q-55 51 -55 133v375h-98zM481 201h441v989h-441v-989z" />
<glyph unicode="P" horiz-adv-x="1298" d="M88 553v199h96v438h-90v203h101q84 0 137 -47q1 0 2 -2q1 -1 1 -1.5t1 -1.5q1 1 2 3q0 1 0.5 1.5t1.5 0.5q51 47 137 47h576q80 0 129 -43q55 -51 55 -133v-492q0 -85 -55 -129q-47 -43 -133 -43h-564v-352h93v-201h-111q-75 0 -127 45l-4 4l-4 -4q-52 -45 -129 -45h-109 v201h90v352h-96zM485 752h449v438h-449v-438z" />
<glyph unicode="Q" horiz-adv-x="1425" d="M78 553v199h100v465q0 86 55 133q49 43 127 43h711q78 0 127 -43q55 -51 55 -133v-465h93v-199h-93v-377q0 -82 -55 -133q-48 -43 -119 -43h-260v-66h92v-200h-110q-49 0 -84 18q-39 -18 -86 -18h-111v200h92v66h-260q-71 0 -119 43q-55 47 -55 133v377h-100zM479 201 h133v57h-92v201h103q51 0 94 -19q41 19 94 19h100v-201h-92v-57h135v989h-475v-989z" />
<glyph unicode="R" horiz-adv-x="1357" d="M94 346v199h94v647h-90v199h101q86 0 135 -45q1 -1 2 -3q0 -1 0.5 -1.5t1.5 -0.5q4 0 4 5q47 45 135 45h572q76 0 125 -43q53 -49 53 -131v-699q0 -80 -53 -129q-45 -40 -113 -45l168 -145h100v-199h-110q-73 0 -125 45l-4 4q0 -1 -2 -2q-1 -1 -1.5 -1t-1.5 -1 q-50 -45 -127 -45h-108v199h78l-164 145h-279v-145h93v-199h-111q-75 0 -125 45l-4 4l-4 -4q-50 -45 -127 -45h-109v199h90v147h-94zM485 543h445v649h-445v-649z" />
<glyph unicode="S" horiz-adv-x="1271" d="M113 0v201h90v157h-90v199h100q9 1 18 1q67 0 119 -46q0 -4 4 -4l4 4q50 46 118 46q9 0 18 -1h102v-199h-92v-157h366v239q-596 420 -612 434q-55 55 -55 132v184h-90v201h100q51 0 88 -17q29 -11 49 -31l4 -4l4 4q48 43 115 48h408q83 0 137 -48l4 -4l2 4q52 48 137 48 h8v-385h-299v184h-366v-238q598 -426 612 -438q53 -45 53 -131v-207q0 -88 -53 -133q-50 -43 -119 -43h-514q-75 0 -125 45l-4 4l-4 -4q-52 -45 -127 -45h-110z" />
<glyph unicode="T" horiz-adv-x="1294" d="M31 1098v102q0 53 16 90q-16 39 -16 90v13h483q79 0 131 -47q0 -1 2 -3v3q54 47 129 47h484v-13q0 -49 -17 -90q17 -39 17 -90v-102h-199v92h-264v-989h172h4v-201h-4h-195q-75 0 -127 45v2l-2 -2q-52 -45 -129 -45h-199v201h5h172v989h-263v-92h-200z" />
<glyph unicode="U" horiz-adv-x="1411" d="M92 1190v203h103q84 0 135 -47q1 0 6 -5q0 5 4 5q51 47 135 47h103v-203h-95v-989h451v989h-92v203h102q84 0 137 -47q2 -3 4 -5q0 5 5 5q51 47 135 47h102v-203h-92v-1190h-21q-74 0 -124 45q-1 1 -3 2t-2 2l-4 -4q-52 -45 -127 -45h-489q-75 0 -125 45l-4 4 q-1 -1 -3 -2t-3 -2q-50 -45 -127 -45h-19v1190h-92z" />
<glyph unicode="V" horiz-adv-x="1343" d="M45 1190v203h102q85 0 136 -47q1 0 6 -5q0 5 4 5q51 47 135 47h102v-203h-90q1 -9 93.5 -489t93.5 -500h80q2 20 93 497t93 492h-88v203h100q84 0 137 -47l5 -5l2 5q53 47 139 47h98v-203h-92q-2 -19 -94 -496.5t-94 -492.5h90v-201h-111q-75 0 -127 45l-4 4l-4 -4 q-50 -45 -127 -45h-113q-75 0 -127 45l-4 4l-4 -4q-50 -45 -127 -45h-110v201h88q-2 15 -93.5 492t-93.5 497h-94z" />
<glyph unicode="W" horiz-adv-x="1660" d="M51 1190v201h101q9 1 17 1q70 0 120 -46q1 -1 2 -2.5t2 -2.5q2 2 2 5q52 46 120 46q9 0 19 -1h98v-201h-90l39 -653l342 395l340 -387q33 616 35 645h-90v201h102q9 1 18 1q67 0 118 -46q4 -4 4 -5q4 4 4 5q50 46 118 46q9 0 19 -1h100v-201h-92q-5 -99 -32.5 -523 t-30.5 -466h90v-201h-101q-77 0 -139 45q-2 2 -2 4q0 -4 -4 -4q-19 -15 -62 -30t-75 -15h-101v201h91l-310 352l-307 -352h84v-201h-100q-35 0 -75.5 14.5t-62.5 30.5l-4 4q0 -4 -4 -4q-19 -15 -62 -30t-73 -15h-102v201h90q-1 11 -14.5 223.5t-29.5 458t-20 307.5h-92z" />
<glyph unicode="X" horiz-adv-x="1386" d="M59 0v201h95l360 493l-360 496h-95v201h103h10q24 0 55 -7q38 -9 70 -38q4 -4 4 -5q4 4 4 5q52 46 119 46q9 0 18 -1h103v-201h-49l194 -260l193 260h-47v201h100q9 1 19 1q68 0 118 -46q0 -1 4 -5q0 1 4 5q50 46 118 46q9 0 18 -1h102v-201h-92l-363 -496l363 -493h92 v-201h-102q-41 0 -78.5 14t-57.5 31q-4 0 -4 4l-4 -4q-21 -16 -59.5 -30.5t-77.5 -14.5h-100v201h47l-193 258l-194 -258h49v-201h-103q-37 0 -75.5 14t-61.5 31l-4 4q0 -4 -4 -4q-20 -16 -60 -30.5t-75 -14.5h-103z" />
<glyph unicode="Y" horiz-adv-x="1318" d="M39 1192v201h102q9 1 18 1q68 0 120 -46q0 -1 4 -5q0 1 4 5q32 29 70 38q31 7 55 7h10h102v-201h-88l150 -635h147l150 635h-86v201h100q8 1 16 1q69 0 121 -46q1 -1 2 -2.5t2 -2.5q1 1 2 2.5t2 2.5q52 46 120 46q9 0 18 -1h100v-201h-94l-144 -635h31v-197h-262v-159h92 v-201h-112q-76 0 -125 47q-3 0 -7 4q0 -4 -4 -4q-49 -47 -125 -47h-112v201h92v159h-262v197h28l-141 635h-96z" />
<glyph unicode="Z" horiz-adv-x="1271" d="M90 2v199h96q1 4 141.5 231.5t280.5 452.5l140 225h-357v-100h-301v383h10q8 1 17 1q70 0 121 -46q1 -1 2 -2.5t2 -2.5q1 1 2 2.5t2 2.5q50 46 120 46q8 0 17 -1h418h10q24 0 55 -7q38 -9 70 -38q1 -1 3 -3.5t3 -3.5q1 1 2 3t2 2q53 47 137 47h101v-203h-90l-572 -907 h361v100h301v-383h-19q-77 0 -127 45l-4 4q-1 -1 -3 -2t-3 -2q-50 -45 -125 -45h-428q-8 0 -27.5 2t-55 14t-54.5 31q-4 0 -4 4q-4 -4 -6 -4q-17 -17 -45 -31q-37 -14 -90 -14h-103z" />
<glyph unicode="a" horiz-adv-x="1318" d="M35 0v201h94q3 23 28 169t31 177h-69v198h110q68 299 88 445h-90v201h103h10q24 0 55 -7q38 -9 70 -38q4 -4 4 -5q1 1 3 2.5t3 2.5q32 29 70 38q31 7 55 7h10h95h10q24 0 55 -7q38 -9 70 -38q4 -4 4 -5q1 1 3 2.5t3 2.5q32 29 70 38q31 7 55 7h10h102v-201h-88 q12 -97 86 -445h109v-198h-70q6 -23 32.5 -171t29.5 -175h92v-201h-111q-75 0 -127 45l-4 4l-4 -4q-50 -45 -125 -45h-112v201h88q-3 26 -28.5 163t-35.5 183h-323q-10 -46 -35.5 -183t-28.5 -163h88v-201h-110q-77 0 -127 45l-4 4q-1 -1 -3.5 -2t-3.5 -2q-50 -45 -125 -45 h-112zM537 745h241q-5 30 -42.5 228t-39.5 217h-78q-3 -24 -36 -203.5t-45 -241.5z" />
<glyph unicode="b" d="M82 551v199h98v440h-92v201h102q9 1 18 1q67 0 118 -46q4 -4 4 -5q1 1 3 2.5t3 2.5q32 29 70 38q31 7 55 7h10h569q8 1 16 1q63 0 111 -44q56 -45 56 -134v-340q0 -77 -56 -133q-21 -17 -37 -22q30 -13 46 -29q55 -51 55 -133v-381q0 -82 -55 -133q-48 -43 -119 -43h-600 q-77 0 -127 45q-2 0 -2 2q0 -2 -2 -2q-50 -45 -125 -45h-113v201h92v350h-98zM481 201h449v350h-449v-350zM481 750h443v440h-443v-440z" />
<glyph unicode="c" horiz-adv-x="1361" d="M63 547v198h103v469q0 93 55 134q48 44 110 44q8 0 15 -1h686q9 1 18 1q64 0 111 -44q53 -42 53 -134v-165h93v-203h-101h-10q-75 0 -127 47l-8 8l-8 -8q-52 -47 -127 -47h-11h-100v203h100v141h-450v-989h450v137h-100v201h100q85 0 138 -47q7 -7 8 -9q2 2 4.5 5t3.5 4 q51 47 137 47h101v-201l-93 2v-164q0 -84 -53 -133q-50 -43 -119 -43h-10h-692q-71 0 -119 43q-55 47 -55 133v371h-103z" />
<glyph unicode="d" horiz-adv-x="1400" d="M88 0v201h92v989h-92v201h969q8 1 16 1q63 0 113 -44q53 -42 53 -134v-464h86v-199h-86v-375q0 -84 -53 -133q-50 -43 -121 -43h-604q-75 0 -127 45l-4 4l-4 -4q-50 -45 -125 -45h-113zM481 201h457v989h-457v-989z" />
<glyph unicode="e" horiz-adv-x="1259" d="M80 549v201h96v440h-92v201h102q9 1 18 1q68 0 120 -46q0 -1 4 -5q0 1 4 5q32 29 70 38q31 7 55 7h10h387q9 1 18 1q67 0 119 -46q0 -1 4 -5q0 1 4 5q50 46 118 46q9 0 18 -1h8v-299h-299v98h-367v-440h285v90h199v-99q0 -51 -17 -92q17 -39 17 -90v-100h-199v92h-285 v-350h367v98h299v-299h-8h-11q-75 0 -125 45l-4 4l-4 -4q-52 -45 -129 -45h-403q-77 0 -127 45l-4 4l-4 -4q-52 -45 -127 -45h-113v201h92v348h-96z" />
<glyph unicode="f" horiz-adv-x="1214" d="M84 549v201h98v440h-90v201h101q9 1 18 1q67 0 119 -46q0 -1 4 -5q1 1 2 2.5t2 2.5q32 29 70 38q31 7 55 7h10h387q9 1 18 1q67 0 119 -46q0 -1 4 -5q0 2 3 5q50 46 118 46q10 0 19 -1h8v-299h-299v98h-367v-440h283v90h201v-99q0 -51 -17 -92q17 -39 17 -90v-100h-201 v92h-283v-350h92v-201h-112q-75 0 -125 45l-4 4l-4 -4q-52 -45 -129 -45h-109v201h90v348h-98z" />
<glyph unicode="g" d="M61 547v198h101v469q0 87 55 134q48 44 110 44q7 0 15 -1h649q8 1 16 1q41 0 89 -22q47 22 87 22q8 0 15 -1h10v-299h-301v98h-446v-989h450v344h-92v-101h-198v103q0 53 16 90q-16 37 -16 90v102h198v-84h486v-198h-93v-373q0 -82 -55 -133q-48 -43 -119 -43h-10h-686 h-6q-71 0 -119 43q-55 47 -55 133v373h-101z" />
<glyph unicode="h" horiz-adv-x="1411" d="M82 356v201h98v635h-92v201h102q9 1 18 1q67 0 118 -46q4 -4 4 -5q1 1 3 2.5t3 2.5q32 29 70 38q31 7 55 7h10h102v-201h-92v-635h449v635h-92v201h102h10q24 0 55 -7q38 -9 70 -38q1 -1 3 -2.5t3 -2.5q0 1 4 5q50 46 118 46q9 0 18 -1h102v-201h-92v-635h86v-201h-86v-6 v-149h92v-201h-111q-78 0 -127 47q-4 0 -4 4q-4 -4 -6 -4q-49 -47 -125 -47h-112v201h92v155h-449v-155h92v-201h-112q-76 0 -125 47q-2 0 -6 4q0 -4 -4 -4q-49 -47 -125 -47h-113v201h92v155h-98z" />
<glyph unicode="i" horiz-adv-x="733" d="M125 0v201h92v989h-92v203h100q86 0 137 -47q3 0 3 -5q5 5 6 5q51 47 135 47h102v-203h-92v-989h92v-201h-110q-77 0 -127 45q-1 1 -3 2t-3 2q0 -1 -3 -4q-52 -45 -126 -45h-111z" />
<glyph unicode="j" horiz-adv-x="1202" d="M55 350v201h99q88 0 139 -47q2 0 2 -4l4 4q51 47 137 47h101v-201h-91v-149h259v989h-93v203h103q84 0 135 -47q1 0 6 -5q0 5 4 5q49 47 135 47h101v-203h-92v-1014q0 -83 -54 -133q-50 -43 -119 -43h-512q-68 0 -118 43q-56 45 -56 115v192h-90z" />
<glyph unicode="k" horiz-adv-x="1382" d="M90 354v199h94v639h-90v201h101q8 1 16 1q69 0 121 -46q1 -1 2 -2.5t2 -2.5q4 4 4 5q50 46 118 46q9 0 19 -1h101v-201h-93v-641h250q3 24 100 326.5t99 314.5h-88v201h102h10q24 0 55 -7q38 -9 70 -38q1 -1 3.5 -2.5t3.5 -2.5q0 1 4 5q32 29 70 38q31 7 55 7h10h102 v-201h-94q-4 -25 -102.5 -337t-100.5 -320h2l2 -3q24 -7 43 -26l4 -4q1 1 3 2q1 0 1.5 0.5t0.5 1.5q52 46 119 46q9 0 18 -1h10v-350h92v-201h-112q-75 0 -127 47q-3 2 -5 4q0 -4 -4 -4q-49 -47 -127 -47h-110v201h92v149h-451v-149h93v-201h-111q-75 0 -127 47l-4 4l-4 -4 q-52 -47 -129 -47h-109v201h90v153h-94z" />
<glyph unicode="l" horiz-adv-x="1071" d="M94 0v201h92v989h-92v203h103q84 0 135 -47q4 0 4 -5q5 5 6 5q49 47 135 47h101v-203h-93v-989h349v92h198v-100q0 -54 -16 -91q16 -39 16 -90v-12h-565q-75 0 -125 45q-1 1 -3 2t-3 2l-4 -4q-50 -45 -127 -45h-111z" />
<glyph unicode="m" horiz-adv-x="1599" d="M92 0v201h90v989h-90v203h101q84 0 137 -47q2 -3 4 -5q1 1 2 3q0 1 0.5 1.5t1.5 0.5q51 47 135 47h102v-203h-92l310 -438l307 438h-82v203h100q84 0 137 -47l5 -5q0 5 2 5q53 47 139 47h98v-203h-90v-989h90v-201h-108q-77 0 -129 45q-2 2 -2 4q-1 -1 -3 -2t-2 -2 q-52 -45 -129 -45h-108v201h90v628l-315 -456l-310 446v-618h92v-201h-112q-75 0 -125 45l-4 4l-4 -4q-52 -45 -129 -45h-109z" />
<glyph unicode="n" horiz-adv-x="1503" d="M90 0v201h90v989h-90v203h100q85 0 138 -47q1 0 2 -2q1 -1 1 -1.5t1 -1.5q1 1 2 3q0 1 0.5 1.5t1.5 0.5q53 47 137 47h100v-203h-73q2 -2 80 -98.5t162.5 -201t165 -206t98.5 -125.5v631h-91v203h101q84 0 137 -47q1 0 2 -2q1 -1 1 -1.5t1 -1.5q1 1 2 3q0 1 0.5 1.5 t1.5 0.5q53 47 137 47h101v-203h-92v-989h92v-201h-111q-75 0 -127 45l-4 4l-4 -4q-52 -45 -129 -45h-109v201h86q-83 109 -264 333.5t-254 321.5v-655h90v-201h-110q-75 0 -127 45l-4 4l-4 -4q-52 -45 -127 -45h-111z" />
<glyph unicode="o" horiz-adv-x="1402" d="M80 551v201h98v465q0 82 55 133q49 43 129 43h678q76 0 125 -43q56 -48 56 -133v-465h92v-201h-92v-375q0 -85 -56 -133q-48 -43 -116 -43h-695q-71 0 -121 43q-55 51 -55 133v375h-98zM481 201h441v989h-441v-989z" />
<glyph unicode="p" horiz-adv-x="1298" d="M88 553v199h96v438h-90v203h101q84 0 137 -47q1 0 2 -2q1 -1 1 -1.5t1 -1.5q1 1 2 3q0 1 0.5 1.5t1.5 0.5q51 47 137 47h576q80 0 129 -43q55 -51 55 -133v-492q0 -85 -55 -129q-47 -43 -133 -43h-564v-352h93v-201h-111q-75 0 -127 45l-4 4l-4 -4q-52 -45 -129 -45h-109 v201h90v352h-96zM485 752h449v438h-449v-438z" />
<glyph unicode="q" horiz-adv-x="1425" d="M78 553v199h100v465q0 86 55 133q49 43 127 43h711q78 0 127 -43q55 -51 55 -133v-465h93v-199h-93v-377q0 -82 -55 -133q-48 -43 -119 -43h-260v-66h92v-200h-110q-49 0 -84 18q-39 -18 -86 -18h-111v200h92v66h-260q-71 0 -119 43q-55 47 -55 133v377h-100zM479 201 h133v57h-92v201h103q51 0 94 -19q41 19 94 19h100v-201h-92v-57h135v989h-475v-989z" />
<glyph unicode="r" horiz-adv-x="1357" d="M94 346v199h94v647h-90v199h101q86 0 135 -45q1 -1 2 -3q0 -1 0.5 -1.5t1.5 -0.5q4 0 4 5q47 45 135 45h572q76 0 125 -43q53 -49 53 -131v-699q0 -80 -53 -129q-45 -40 -113 -45l168 -145h100v-199h-110q-73 0 -125 45l-4 4q0 -1 -2 -2q-1 -1 -1.5 -1t-1.5 -1 q-50 -45 -127 -45h-108v199h78l-164 145h-279v-145h93v-199h-111q-75 0 -125 45l-4 4l-4 -4q-50 -45 -127 -45h-109v199h90v147h-94zM485 543h445v649h-445v-649z" />
<glyph unicode="s" horiz-adv-x="1271" d="M113 0v201h90v157h-90v199h100q9 1 18 1q67 0 119 -46q0 -4 4 -4l4 4q50 46 118 46q9 0 18 -1h102v-199h-92v-157h366v239q-596 420 -612 434q-55 55 -55 132v184h-90v201h100q51 0 88 -17q29 -11 49 -31l4 -4l4 4q48 43 115 48h408q83 0 137 -48l4 -4l2 4q52 48 137 48 h8v-385h-299v184h-366v-238q598 -426 612 -438q53 -45 53 -131v-207q0 -88 -53 -133q-50 -43 -119 -43h-514q-75 0 -125 45l-4 4l-4 -4q-52 -45 -127 -45h-110z" />
<glyph unicode="t" horiz-adv-x="1294" d="M31 1098v102q0 53 16 90q-16 39 -16 90v13h483q79 0 131 -47q0 -1 2 -3v3q54 47 129 47h484v-13q0 -49 -17 -90q17 -39 17 -90v-102h-199v92h-264v-989h172h4v-201h-4h-195q-75 0 -127 45v2l-2 -2q-52 -45 -129 -45h-199v201h5h172v989h-263v-92h-200z" />
<glyph unicode="u" horiz-adv-x="1411" d="M92 1190v203h103q84 0 135 -47q1 0 6 -5q0 5 4 5q51 47 135 47h103v-203h-95v-989h451v989h-92v203h102q84 0 137 -47q2 -3 4 -5q0 5 5 5q51 47 135 47h102v-203h-92v-1190h-21q-74 0 -124 45q-1 1 -3 2t-2 2l-4 -4q-52 -45 -127 -45h-489q-75 0 -125 45l-4 4 q-1 -1 -3 -2t-3 -2q-50 -45 -127 -45h-19v1190h-92z" />
<glyph unicode="v" horiz-adv-x="1343" d="M45 1190v203h102q85 0 136 -47q1 0 6 -5q0 5 4 5q51 47 135 47h102v-203h-90q1 -9 93.5 -489t93.5 -500h80q2 20 93 497t93 492h-88v203h100q84 0 137 -47l5 -5l2 5q53 47 139 47h98v-203h-92q-2 -19 -94 -496.5t-94 -492.5h90v-201h-111q-75 0 -127 45l-4 4l-4 -4 q-50 -45 -127 -45h-113q-75 0 -127 45l-4 4l-4 -4q-50 -45 -127 -45h-110v201h88q-2 15 -93.5 492t-93.5 497h-94z" />
<glyph unicode="w" horiz-adv-x="1660" d="M51 1190v201h101q9 1 17 1q70 0 120 -46q1 -1 2 -2.5t2 -2.5q2 2 2 5q52 46 120 46q9 0 19 -1h98v-201h-90l39 -653l342 395l340 -387q33 616 35 645h-90v201h102q9 1 18 1q67 0 118 -46q4 -4 4 -5q4 4 4 5q50 46 118 46q9 0 19 -1h100v-201h-92q-5 -99 -32.5 -523 t-30.5 -466h90v-201h-101q-77 0 -139 45q-2 2 -2 4q0 -4 -4 -4q-19 -15 -62 -30t-75 -15h-101v201h91l-310 352l-307 -352h84v-201h-100q-35 0 -75.5 14.5t-62.5 30.5l-4 4q0 -4 -4 -4q-19 -15 -62 -30t-73 -15h-102v201h90q-1 11 -14.5 223.5t-29.5 458t-20 307.5h-92z" />
<glyph unicode="x" horiz-adv-x="1386" d="M59 0v201h95l360 493l-360 496h-95v201h103h10q24 0 55 -7q38 -9 70 -38q4 -4 4 -5q4 4 4 5q52 46 119 46q9 0 18 -1h103v-201h-49l194 -260l193 260h-47v201h100q9 1 19 1q68 0 118 -46q0 -1 4 -5q0 1 4 5q50 46 118 46q9 0 18 -1h102v-201h-92l-363 -496l363 -493h92 v-201h-102q-41 0 -78.5 14t-57.5 31q-4 0 -4 4l-4 -4q-21 -16 -59.5 -30.5t-77.5 -14.5h-100v201h47l-193 258l-194 -258h49v-201h-103q-37 0 -75.5 14t-61.5 31l-4 4q0 -4 -4 -4q-20 -16 -60 -30.5t-75 -14.5h-103z" />
<glyph unicode="y" horiz-adv-x="1318" d="M39 1192v201h102q9 1 18 1q68 0 120 -46q0 -1 4 -5q0 1 4 5q32 29 70 38q31 7 55 7h10h102v-201h-88l150 -635h147l150 635h-86v201h100q8 1 16 1q69 0 121 -46q1 -1 2 -2.5t2 -2.5q1 1 2 2.5t2 2.5q52 46 120 46q9 0 18 -1h100v-201h-94l-144 -635h31v-197h-262v-159h92 v-201h-112q-76 0 -125 47q-3 0 -7 4q0 -4 -4 -4q-49 -47 -125 -47h-112v201h92v159h-262v197h28l-141 635h-96z" />
<glyph unicode="z" horiz-adv-x="1271" d="M90 2v199h96q1 4 141.5 231.5t280.5 452.5l140 225h-357v-100h-301v383h10q8 1 17 1q70 0 121 -46q1 -1 2 -2.5t2 -2.5q1 1 2 2.5t2 2.5q50 46 120 46q8 0 17 -1h418h10q24 0 55 -7q38 -9 70 -38q1 -1 3 -3.5t3 -3.5q1 1 2 3t2 2q53 47 137 47h101v-203h-90l-572 -907 h361v100h301v-383h-19q-77 0 -127 45l-4 4q-1 -1 -3 -2t-3 -2q-50 -45 -125 -45h-428q-8 0 -27.5 2t-55 14t-54.5 31q-4 0 -4 4q-4 -4 -6 -4q-17 -17 -45 -31q-37 -14 -90 -14h-103z" />
<glyph unicode="&#x2000;" horiz-adv-x="697" />
<glyph unicode="&#x2001;" horiz-adv-x="1394" />
<glyph unicode="&#x2002;" horiz-adv-x="697" />
<glyph unicode="&#x2003;" horiz-adv-x="1394" />
<glyph unicode="&#x2004;" horiz-adv-x="464" />
<glyph unicode="&#x2005;" horiz-adv-x="348" />
<glyph unicode="&#x2006;" horiz-adv-x="232" />
<glyph unicode="&#x2007;" horiz-adv-x="232" />
<glyph unicode="&#x2008;" horiz-adv-x="174" />
<glyph unicode="&#x2009;" horiz-adv-x="278" />
<glyph unicode="&#x200a;" horiz-adv-x="77" />
<glyph unicode="&#x202f;" horiz-adv-x="278" />
<glyph unicode="&#x205f;" horiz-adv-x="348" />
<glyph unicode="&#xe000;" horiz-adv-x="1392" d="M0 0v1393h1393v-1393h-1393z" />
</font>
</defs>
</svg>
